<svg width="106" height="80" viewBox="0 0 106 80" fill="none" xmlns="http://www.w3.org/2000/svg">
<path d="M53.3975 0C19.875 0 0 39.75 0 39.75C0 39.75 19.875 79.5 53.3975 79.5C86.125 79.5 106 39.75 106 39.75C106 39.75 86.125 0 53.3975 0ZM53 13.25C67.7075 13.25 79.5 25.175 79.5 39.75C79.5 54.4575 67.7075 66.25 53 66.25C38.425 66.25 26.5 54.4575 26.5 39.75C26.5 25.175 38.425 13.25 53 13.25ZM53 26.5C45.7125 26.5 39.75 32.4625 39.75 39.75C39.75 47.0375 45.7125 53 53 53C60.2875 53 66.25 47.0375 66.25 39.75C66.25 38.425 65.72 37.2325 65.455 36.04C64.395 38.16 62.275 39.75 59.625 39.75C55.915 39.75 53 36.835 53 33.125C53 30.475 54.59 28.355 56.71 27.295C55.5175 26.8975 54.325 26.5 53 26.5Z" fill="black"/>
</svg>
