<svg width="73" height="62" viewBox="0 0 73 62" fill="none" xmlns="http://www.w3.org/2000/svg">
<path d="M18.1009 0C13.1231 0 8.68843 2.0816 5.33976 5.33976C2.0816 8.59792 0 13.0326 0 18.1009C0 23.0786 2.0816 27.5134 5.33976 30.862L36.2018 61.724L67.0638 30.862C70.322 27.6039 72.4036 23.1691 72.4036 18.1009C72.4036 13.1231 70.322 8.68843 67.0638 5.33976C63.8056 2.0816 59.3709 0 54.3027 0C49.3249 0 44.8902 2.0816 41.5415 5.33976C38.2834 8.59792 36.2018 13.0326 36.2018 18.1009C36.2018 13.1231 34.1202 8.68843 30.862 5.33976C27.6039 2.0816 23.1691 0 18.1009 0Z" fill="black"/>
</svg>
